# xmcd
#
# Track frame offsets: 
#        151
#        25817
#        56129
#        71896
#        91430
#        118745
#        139500
#        166860
#        200639
#        221991
#        236724
#
# Disc length: 3415 seconds
#
# Revision: 0
# Processed by: cddbd v1.5.1PL0 Copyright (c) Steve Scherf et al.
# Submitted via: ExactAudioCopy v0.95a5
#
DISCID=a90d550b
DTITLE=Various Artist - A Pop Christmas
DYEAR=2003
DGENRE=Christmas/Holiday
TTITLE0=Steven Curtis Chapman - Angels We Have Heard On High
TTITLE1=Steven Curtis Chapman - Hark! The Herals Angels Sing
TTITLE2=Steven Curtis Chapman - O Come Emmanuel
TTITLE3=Steven Curtis Chapman - O Come All Ye Faithful
TTITLE4=Steven Curtis Chapman - Silent Night Medley
TTITLE5=Steven Curtis Chapman - This Baby (Based On "What Child Is Thi
TTITLE5=s")
TTITLE6=Avalon - Angels We Have Heard On High Medley
TTITLE7=Steve Green - Midnight Clear Medley
TTITLE8=Steve Green - The First Noel
TTITLE9=Steve Green - What Child Is This
TTITLE10=Steve Green - Away In The Manger Medley
EXTD=
EXTT0=
EXTT1=
EXTT2=
EXTT3=
EXTT4=
EXTT5=
EXTT6=
EXTT7=
EXTT8=
EXTT9=
EXTT10=
PLAYORDER=
